<?xml version="1.0" encoding="UTF-8" standalone="no"?>
<svg
   xmlns:dc="http://purl.org/dc/elements/1.1/"
   xmlns:cc="http://creativecommons.org/ns#"
   xmlns:rdf="http://www.w3.org/1999/02/22-rdf-syntax-ns#"
   xmlns:svg="http://www.w3.org/2000/svg"
   xmlns="http://www.w3.org/2000/svg"
   xmlns:xlink="http://www.w3.org/1999/xlink"
   xmlns:sodipodi="http://sodipodi.sourceforge.net/DTD/sodipodi-0.dtd"
   xmlns:inkscape="http://www.inkscape.org/namespaces/inkscape"
   width="25.1"
   height="40.227001"
   version="1.1"
   id="svg3808"
   sodipodi:docname="marker.svg"
   inkscape:version="0.92.1 r15371">
  <metadata
     id="metadata3812">
    <rdf:RDF>
      <cc:Work
         rdf:about="">
        <dc:format>image/svg+xml</dc:format>
        <dc:type
           rdf:resource="http://purl.org/dc/dcmitype/StillImage" />
        <dc:title></dc:title>
      </cc:Work>
    </rdf:RDF>
  </metadata>
  <sodipodi:namedview
     pagecolor="#ffffff"
     bordercolor="#666666"
     borderopacity="1"
     objecttolerance="10"
     gridtolerance="10"
     guidetolerance="10"
     inkscape:pageopacity="0"
     inkscape:pageshadow="2"
     inkscape:window-width="1916"
     inkscape:window-height="1041"
     id="namedview3810"
     showgrid="false"
     inkscape:zoom="0.816259"
     inkscape:cx="372.047"
     inkscape:cy="526.18103"
     inkscape:window-x="0"
     inkscape:window-y="18"
     inkscape:window-maximized="0"
     inkscape:current-layer="svg3808" />
  <defs
     id="defs3802">
    <linearGradient
       id="b">
      <stop
         offset="0"
         stop-color="#0023a3"
         id="stop3766" />
      <stop
         offset="1"
         stop-color="#0023a3"
         id="stop3768" />
    </linearGradient>
    <linearGradient
       id="a">
      <stop
         offset="0"
         stop-color="#0023a3"
         id="stop3771" />
      <stop
         offset="1"
         stop-color="#0023a3"
         id="stop3773" />
    </linearGradient>
    <linearGradient
       xlink:href="#a"
       x1="351.138"
       y1="551.58899"
       x2="351.138"
       y2="512.92798"
       gradientUnits="userSpaceOnUse"
       gradientTransform="translate(-2.715)"
       id="linearGradient3776" />
    <linearGradient
       xlink:href="#a"
       x1="318.57101"
       y1="550.052"
       x2="318.57101"
       y2="512.422"
       gradientUnits="userSpaceOnUse"
       gradientTransform="translate(94.732,2.054)"
       id="linearGradient3778" />
    <linearGradient
       xlink:href="#a"
       gradientUnits="userSpaceOnUse"
       gradientTransform="matrix(-1,0,0,1,731.268,2.054)"
       x1="318.57101"
       y1="550.052"
       x2="318.57101"
       y2="512.422"
       id="linearGradient3780" />
    <linearGradient
       xlink:href="#a"
       gradientUnits="userSpaceOnUse"
       gradientTransform="translate(94.232,2.054)"
       x1="318.57101"
       y1="550.052"
       x2="318.57101"
       y2="512.422"
       id="linearGradient3782" />
    <linearGradient
       xlink:href="#a"
       gradientUnits="userSpaceOnUse"
       gradientTransform="translate(-28.58,-0.437)"
       x1="445.30099"
       y1="541.28601"
       x2="445.30099"
       y2="503.72"
       id="linearGradient3784" />
    <linearGradient
       xlink:href="#b"
       gradientUnits="userSpaceOnUse"
       gradientTransform="translate(63,-0.438)"
       x1="351.74799"
       y1="522.77399"
       x2="351.74799"
       y2="503.72101"
       id="linearGradient3786" />
    <linearGradient
       xlink:href="#a"
       gradientUnits="userSpaceOnUse"
       gradientTransform="translate(-28.58,-0.437)"
       x1="445.30099"
       y1="541.28601"
       x2="445.30099"
       y2="503.72"
       id="linearGradient3788" />
    <linearGradient
       xlink:href="#b"
       gradientUnits="userSpaceOnUse"
       gradientTransform="translate(63,-0.438)"
       x1="351.74799"
       y1="522.77399"
       x2="351.74799"
       y2="503.72101"
       id="linearGradient3790" />
    <linearGradient
       xlink:href="#a"
       gradientUnits="userSpaceOnUse"
       gradientTransform="translate(-28.58,-0.437)"
       x1="445.30099"
       y1="541.28601"
       x2="445.30099"
       y2="503.72"
       id="linearGradient3792" />
    <linearGradient
       xlink:href="#b"
       gradientUnits="userSpaceOnUse"
       gradientTransform="translate(63,-0.438)"
       x1="351.74799"
       y1="522.77399"
       x2="351.74799"
       y2="503.72101"
       id="linearGradient3794" />
    <linearGradient
       xlink:href="#a"
       id="c"
       gradientUnits="userSpaceOnUse"
       gradientTransform="matrix(-1.0000001,0,0,0.99999743,457.89604,-503.3477)"
       x1="445.30099"
       y1="541.28601"
       x2="445.30099"
       y2="503.72" />
    <linearGradient
       xlink:href="#b"
       id="d"
       gradientUnits="userSpaceOnUse"
       gradientTransform="matrix(-1.0000001,0,0,0.99999743,366.31604,-503.3487)"
       x1="351.74799"
       y1="522.77399"
       x2="351.74799"
       y2="503.72101" />
    <linearGradient
       xlink:href="#a"
       gradientUnits="userSpaceOnUse"
       gradientTransform="translate(-28.846,-0.287)"
       x1="445.30099"
       y1="541.28601"
       x2="445.30099"
       y2="503.72"
       id="linearGradient3798" />
    <linearGradient
       xlink:href="#b"
       gradientUnits="userSpaceOnUse"
       gradientTransform="translate(62.734,-0.288)"
       x1="351.74799"
       y1="522.77399"
       x2="351.74799"
       y2="503.72101"
       id="linearGradient3800" />
  </defs>
  <path
     d="m 12.506,0.55003945 c 6.573,0 12.044001,5.69100005 12.044001,11.86599955 0,2.778 -1.564,6.308 -2.694,8.7459 l -9.306001,17.872 -9.2620005,-17.872 c -1.1300001,-2.4379 -2.73800018,-5.7909 -2.73800018,-8.7459 0,-6.1749995 5.38300028,-11.86599955 11.95600068,-11.86599955 z m 0,7.15500005 c -2.5840001,0.017 -4.6790003,2.122 -4.6790003,4.7099995 0,2.588 2.0950002,4.663 4.6790003,4.679 2.584,-0.017 4.679,-2.09 4.679,-4.679 0,-2.5879995 -2.095,-4.6929995 -4.679,-4.7099995 z"
     id="path3804"
     style="fill:url(#c);stroke:url(#d);stroke-width:1.09999859;stroke-linecap:round"
     inkscape:connector-curvature="0" />
  <path
     d="m 12.519,1.6570395 c 5.944,0 10.938001,5.219 10.938001,10.7499995 0,2.359 -1.443,5.832 -2.563001,8.2499 l -0.031,0.031 -8.313,15.969 -8.2500005,-15.969 -0.031,-0.031 c -1.135,-2.4479 -2.6250001,-5.7059 -2.6250001,-8.2499 0,-5.5379995 4.9310003,-10.7499995 10.8750006,-10.7499995 z m 0,4.969 c -3.1680002,0.021 -5.7810003,2.601 -5.7810003,5.7809995 0,3.18 2.6130001,5.761 5.7810003,5.781 3.168,-0.02 5.75,-2.61 5.75,-5.781 0,-3.1719995 -2.582,-5.7609995 -5.75,-5.7809995 z"
     id="path3806"
     inkscape:connector-curvature="0"
     style="fill:none;stroke:#ffffff;stroke-width:1.09999859;stroke-linecap:round;stroke-opacity:0.122" />
</svg>
